<?xml version="1.0" encoding="utf-8"?>
<!-- Generator: Adobe Illustrator 23.0.3, SVG Export Plug-In . SVG Version: 6.00 Build 0)  -->
<!DOCTYPE svg PUBLIC "-//W3C//DTD SVG 1.1//EN" "http://www.w3.org/Graphics/SVG/1.1/DTD/svg11.dtd" [
	<!ENTITY ns_extend "http://ns.adobe.com/Extensibility/1.0/">
	<!ENTITY ns_ai "http://ns.adobe.com/AdobeIllustrator/10.0/">
	<!ENTITY ns_graphs "http://ns.adobe.com/Graphs/1.0/">
	<!ENTITY ns_vars "http://ns.adobe.com/Variables/1.0/">
	<!ENTITY ns_imrep "http://ns.adobe.com/ImageReplacement/1.0/">
	<!ENTITY ns_sfw "http://ns.adobe.com/SaveForWeb/1.0/">
	<!ENTITY ns_custom "http://ns.adobe.com/GenericCustomNamespace/1.0/">
	<!ENTITY ns_adobe_xpath "http://ns.adobe.com/XPath/1.0/">
]>
<svg version="1.1" id="Layer_1" xmlns:x="&ns_extend;" xmlns:i="&ns_ai;" xmlns:graph="&ns_graphs;"
	 xmlns="http://www.w3.org/2000/svg" xmlns:xlink="http://www.w3.org/1999/xlink" x="0px" y="0px" viewBox="0 0 88.7 74.8"
	 style="enable-background:new 0 0 88.7 74.8;" xml:space="preserve">
<metadata>
	<sfw  xmlns="&ns_sfw;">
		<slices></slices>
		<sliceSourceBounds  bottomLeftOrigin="true" height="74.7" width="88.6" x="5.7" y="37.7"></sliceSourceBounds>
	</sfw>
</metadata>
<path d="M77.5,28.3c-1.4,0.2-2.6,0.8-3.7,1.4l-0.4,0.2c-0.8,0.4-1.7,0.9-2.8,1.2c-0.6,0.2-1.1,0.2-1.8,0.3c-0.6,0-1.2,0-1.8-0.1
	c-1.3-0.2-2.5-0.8-3.4-1.3l-0.5-0.3c-1.1-0.6-2.2-1.2-3.7-1.4c-3.9-0.4-7,2.4-8.3,5.4c-0.8,1.8-1.1,3.9-1,6.1
	c0.1,2.1,0.6,4.1,1.3,5.9c0.4,0.9,0.8,1.8,1.3,2.6c0.5,0.9,0.9,1.7,1.2,2.5c0.7,1.7,0.8,3.8,0.8,5.7l0,0.5c0.1,3.2,0.9,6.4,2.3,9.6
	c1.1,2.5,2.8,5.7,5.7,7.5c1.3,0.8,2.2,0.6,2.8,0.3c1.2-0.7,1.9-2.5,2-5.6c0-1.4,0-2.8,0-4.1c-0.1-2.6-0.1-5,0.3-7.5
	c0.1-0.5,0.3-1.7,0.7-2.5c0.4,0.8,0.6,2,0.7,2.5c0.4,2.5,0.3,4.9,0.3,7.5c0,1.4-0.1,2.8,0,4.1c0.1,3.1,0.7,5,2,5.6
	c0.3,0.1,0.6,0.3,1.1,0.3c0.5,0,1.1-0.1,1.7-0.6c2.9-1.8,4.5-4.9,5.7-7.5c1.4-3.2,2.2-6.4,2.3-9.6l0-0.5c0.1-2,0.1-4,0.8-5.7
	c0.3-0.9,0.8-1.7,1.2-2.5c0.4-0.8,0.9-1.7,1.3-2.6c0.8-1.9,1.2-3.9,1.3-5.9c0.1-2.3-0.2-4.3-1-6.1C84.5,30.8,81.4,27.9,77.5,28.3z
	 M84.8,39.8c-0.1,1.8-0.5,3.6-1.2,5.3c-0.3,0.8-0.7,1.6-1.2,2.4c-0.5,0.9-0.9,1.8-1.3,2.7c-0.8,2.1-0.9,4.3-1,6.4l0,0.5
	c-0.1,3-0.8,5.9-2.1,8.8c-1,2.3-2.5,5.1-4.9,6.6c-0.4,0.2-0.7,0.3-0.8,0.2c-0.1,0-0.8-0.5-0.9-3.9c0-1.3,0-2.7,0-4
	c0.1-2.6,0.1-5.2-0.3-7.9C71,55.6,70.6,54,69.8,53c-0.3-0.4-0.8-0.6-1.2-0.6c0,0,0,0,0,0c-0.5,0-0.9,0.2-1.2,0.6
	c-0.9,1-1.2,2.6-1.4,3.9c-0.4,2.7-0.4,5.3-0.3,7.9c0,1.3,0.1,2.7,0,4c-0.1,3.4-0.8,3.9-0.9,3.9c-0.1,0.1-0.4,0-0.8-0.2
	C61.5,71,60,68.2,59,66c-1.3-2.9-2-5.9-2.1-8.8l0-0.5c-0.1-2.1-0.2-4.3-1-6.4c-0.4-1-0.9-1.9-1.3-2.7c-0.4-0.8-0.8-1.6-1.2-2.4
	c-0.7-1.7-1.1-3.4-1.2-5.3c-0.1-2,0.2-3.7,0.8-5.2c1-2.3,3.4-4.6,6.3-4.3c1,0.1,1.9,0.6,2.9,1.2l0.5,0.3c1.1,0.6,2.5,1.3,4,1.5
	c0.7,0.1,1.4,0.2,2.2,0.1c0.8,0,1.5-0.1,2.2-0.3c1.2-0.3,2.4-0.9,3.2-1.4l0.4-0.2c1-0.6,1.9-1,2.9-1.2c2.9-0.3,5.2,1.9,6.3,4.2
	C84.7,36.1,84.9,37.8,84.8,39.8z"/>
<path d="M66.6,37.3c-4-1.4-8.2,0.3-9.4,3.8c-0.2,0.5,0.1,1.1,0.6,1.3c0.1,0,0.2,0.1,0.3,0.1c0.4,0,0.8-0.3,0.9-0.7
	c0.8-2.4,3.9-3.6,6.9-2.6c0.5,0.2,1.1-0.1,1.3-0.6C67.4,38,67.1,37.5,66.6,37.3z"/>
<path d="M49.3,32.7l5.4-5.4l0,0l0,0l5.4-5.4l0,0l0,0l2.7-2.7c0.4-0.4,0.4-1,0-1.4l-8.5-8.5L54.5,9c0.7-0.7,1.2-1.7,1.2-2.7
	c0-1.1-0.3-2-1.1-2.8l-0.1-0.1C53.1,1.9,50.6,2,49,3.5L20.6,32L1.2,51.3c-1.6,1.6-1.6,4-0.2,5.5l0.1,0.1C1.9,57.6,2.9,58,3.8,58
	c1,0,2.1-0.4,2.9-1.2l29.9-29.9l8.5,8.5c0.2,0.2,0.4,0.3,0.7,0.3s0.5-0.1,0.7-0.3L49.3,32.7L49.3,32.7
	C49.3,32.7,49.3,32.7,49.3,32.7z M5.3,55.4c-0.8,0.8-2,0.9-2.7,0.2l-0.1-0.1c-0.7-0.7-0.6-1.9,0.2-2.7L22,33.4L50.5,4.9
	c0.8-0.8,2-0.9,2.7-0.2l0.1,0.1c0.3,0.3,0.5,0.8,0.5,1.3c0,0.5-0.2,1-0.6,1.4L5.3,55.4z M45.9,33.2l-7.8-7.8l14.9-14.9l7.8,7.8
	l-1.3,1.3L57.8,18c-0.4-0.4-1-0.4-1.4,0s-0.4,1,0,1.4l1.7,1.7l-1.3,1.3l-4.5-4.5c-0.4-0.4-1-0.4-1.4,0s-0.4,1,0,1.4l4.5,4.5L54,25.1
	l-1.7-1.7c-0.4-0.4-1-0.4-1.4,0s-0.4,1,0,1.4l1.7,1.7l-1.3,1.3l-4.5-4.5c-0.4-0.4-1-0.4-1.4,0s-0.4,1,0,1.4l4.5,4.5l-1.3,1.3
	l-1.7-1.7c-0.4-0.4-1-0.4-1.4,0s-0.4,1,0,1.4l1.7,1.7L45.9,33.2z"/>
<path d="M87.6,11.6c-1.2,0-2.4-0.2-3.6-0.5c-0.2,0-0.4-0.1-0.6-0.1c-2.4-0.6-3.7-1.7-4.5-3.6c-0.7-1.9-0.8-4.1-0.9-6.3
	c0-0.5-0.5-1-1-1s-1,0.4-1,1c0,2.2-0.2,4.4-0.9,6.3c-0.8,1.9-2.1,3.1-4.5,3.6c-0.2,0-0.4,0.1-0.6,0.1c-1.2,0.3-2.4,0.4-3.6,0.5
	c-0.5,0-1,0.5-1,1s0.4,1,1,1c1.2,0,2.4,0.2,3.6,0.5c0.2,0,0.4,0.1,0.6,0.1c2.4,0.6,3.7,1.7,4.5,3.6c0.7,1.9,0.8,4,0.9,6.3
	c0,0.5,0.5,1,1,1s1-0.4,1-1c0-2.2,0.2-4.4,0.9-6.3c0.8-1.9,2.1-3.1,4.5-3.6c0.2,0,0.4-0.1,0.6-0.1c1.2-0.3,2.4-0.4,3.6-0.5
	c0.5,0,1-0.5,1-1C88.6,12.1,88.2,11.6,87.6,11.6z M77.1,17.1C77.1,17.1,77.1,17.1,77.1,17.1C77.1,17.1,77.1,17.1,77.1,17.1
	c-0.9-2.2-2.4-3.7-4.7-4.5c2.3-0.8,3.8-2.3,4.7-4.5c0,0,0,0,0-0.1c0,0,0,0,0,0.1c0.8,2.2,2.4,3.7,4.7,4.5
	C79.5,13.4,78,14.9,77.1,17.1z"/>
<path d="M48,47.1c-0.7,0-1.4-0.1-2-0.3l-0.3-0.1c-1.2-0.3-1.9-0.9-2.3-1.9c-0.4-1-0.5-2.2-0.5-3.5c0-0.5-0.5-1-1-1s-1,0.4-1,1
	c0,1.3-0.1,2.5-0.5,3.5c-0.4,1-1.1,1.6-2.3,1.9l-0.3,0.1c-0.6,0.1-1.3,0.2-2,0.3c-0.5,0-1,0.5-1,1s0.4,1,1,1c0.7,0,1.4,0.1,2,0.3
	l0.3,0.1c1.2,0.3,1.9,0.9,2.3,1.9c0.4,1,0.5,2.2,0.5,3.5c0,0.5,0.5,1,1,1s1-0.4,1-1c0-1.3,0.1-2.5,0.5-3.5c0.4-1,1.1-1.6,2.3-1.9
	l0.3-0.1c0.6-0.1,1.3-0.2,2-0.3c0.5,0,1-0.5,1-1S48.5,47.1,48,47.1z M41.9,49.8c-0.4-0.7-1-1.3-1.7-1.7c0.7-0.4,1.3-1,1.7-1.7
	c0.4,0.7,1,1.3,1.7,1.7C42.9,48.5,42.3,49.1,41.9,49.8z"/>
</svg>
