<?xml version="1.0" encoding="utf-8"?>
<!-- Generator: Adobe Illustrator 23.0.3, SVG Export Plug-In . SVG Version: 6.00 Build 0)  -->
<!DOCTYPE svg PUBLIC "-//W3C//DTD SVG 1.1//EN" "http://www.w3.org/Graphics/SVG/1.1/DTD/svg11.dtd" [
	<!ENTITY ns_extend "http://ns.adobe.com/Extensibility/1.0/">
	<!ENTITY ns_ai "http://ns.adobe.com/AdobeIllustrator/10.0/">
	<!ENTITY ns_graphs "http://ns.adobe.com/Graphs/1.0/">
	<!ENTITY ns_vars "http://ns.adobe.com/Variables/1.0/">
	<!ENTITY ns_imrep "http://ns.adobe.com/ImageReplacement/1.0/">
	<!ENTITY ns_sfw "http://ns.adobe.com/SaveForWeb/1.0/">
	<!ENTITY ns_custom "http://ns.adobe.com/GenericCustomNamespace/1.0/">
	<!ENTITY ns_adobe_xpath "http://ns.adobe.com/XPath/1.0/">
]>
<svg version="1.1" id="Layer_1" xmlns:x="&ns_extend;" xmlns:i="&ns_ai;" xmlns:graph="&ns_graphs;"
	 xmlns="http://www.w3.org/2000/svg" xmlns:xlink="http://www.w3.org/1999/xlink" x="0px" y="0px" viewBox="0 0 493.4 512"
	 style="enable-background:new 0 0 493.4 512;" xml:space="preserve">
<metadata>
	<sfw  xmlns="&ns_sfw;">
		<slices></slices>
		<sliceSourceBounds  bottomLeftOrigin="true" height="512" width="492.6" x="9.7" y="128"></sliceSourceBounds>
	</sfw>
</metadata>
<g>
	<g>
		<g>
			<g>
				<path d="M488.4,365.2c2.8,2.8,4.5,6.6,4.5,10.7c0,4.3-1.8,8.2-4.5,11l-0.1,0.2c-2.8,2.8-6.7,4.5-10.8,4.5c-4.3,0-8.1-1.8-11-4.6
					l-0.1-0.1c-2.7-2.8-4.4-6.6-4.4-10.8c0-4.2,1.7-8.1,4.5-10.9l0.2-0.1c2.8-2.8,6.6-4.4,10.8-4.4c4.2,0,8.1,1.7,10.9,4.5
					L488.4,365.2z M483.8,375.9c0-1.8-0.7-3.4-1.8-4.5c-1.2-1.2-2.8-1.9-4.6-1.9c-1.8,0-3.4,0.8-4.5,1.9c-1.2,1.2-1.9,2.8-1.9,4.5
					c0,1.8,0.7,3.5,1.8,4.6c1.2,1.1,2.8,1.9,4.6,1.9c1.8,0,3.4-0.8,4.5-1.9C483.1,379.4,483.8,377.8,483.8,375.9z"/>
				<path d="M484.4,86.2c2.1,1.2,2.9,4,1.7,6.2c-0.5,0.7-1,1.2-1.7,1.6l-16.5,9.5c-2.2,1.2-4.9,0.5-6.2-1.6
					c-1.2-2.1-0.5-4.9,1.7-6.2l9.7-5.6l-9.7-5.6c-2.2-1.3-2.9-4.1-1.7-6.2c1.3-2.1,4.1-2.9,6.2-1.6L484.4,86.2z"/>
				<path d="M433.5,117.4v286c0,12.7-5.3,24.4-13.7,32.9c-8.4,8.5-20.1,13.7-32.9,13.7H100.9c-12.9,0-24.5-5.2-32.9-13.7l-0.3-0.3
					c-8.3-8.4-13.4-20-13.4-32.6v-286c0-12.8,5.2-24.5,13.7-32.9c8.4-8.4,20-13.7,32.9-13.7h285.9c12.8,0,24.5,5.3,32.9,13.7
					C428.2,93,433.5,104.6,433.5,117.4z M424.4,403.4v-286c0-10.4-4.1-19.7-11-26.6c-6.8-6.8-16.2-11-26.6-11H100.9
					c-10.4,0-19.7,4.1-26.6,11c-6.8,6.8-11.1,16.2-11.1,26.6v286c0,10.2,4.1,19.5,10.8,26.2l0.2,0.2c6.8,6.8,16.2,11,26.6,11h285.9
					c10.4,0,19.7-4.3,26.6-11C420.2,423.1,424.4,413.7,424.4,403.4z"/>
				<path d="M391.4,150v220.9c0,10.2-4.1,19.4-10.8,26.2c-6.8,6.7-16,10.9-26.2,10.9h-221c-10.1,0-19.4-4.2-26.2-10.9
					c-6.7-6.8-10.8-16-10.8-26.2V150c0-10.2,4.1-19.5,10.8-26.2c6.8-6.8,16-10.9,26.2-10.9h221c10.1,0,19.4,4.1,26.2,10.9l0.2,0.2
					C387.3,130.7,391.4,139.9,391.4,150z M382.3,370.9V150c0-7.6-3.1-14.6-8-19.7l-0.2-0.1c-5.1-5.1-12.1-8.2-19.7-8.2h-221
					c-7.7,0-14.7,3.1-19.7,8.2c-5.1,5.1-8.2,12-8.2,19.8v220.9c0,7.7,3.1,14.7,8.2,19.7c5.1,5.1,12.1,8.3,19.7,8.3h221
					c7.7,0,14.7-3.2,19.7-8.3C379.1,385.5,382.3,378.5,382.3,370.9z"/>
				<path d="M369.3,490.7c2.5,0,4.6,2.1,4.6,4.5c0,2.5-2.1,4.5-4.6,4.5h-23.6c-2.5,0-4.5-2-4.5-4.5c0-2.5,2.1-4.5,4.5-4.5H369.3z"/>
				<path d="M353.6,502.9c2.5,0,4.5,2.1,4.5,4.5c0,2.5-2.1,4.6-4.5,4.6h-50.4c-2.5,0-4.5-2.1-4.5-4.6c0-2.5,2.1-4.5,4.5-4.5H353.6z"
					/>
				<path d="M340.6,209.4c0.6,12.1-4.4,21.3-10.4,32.3c-9.4,17.4-21.5,39.9-15.4,86.7c1.8,12.7,2.3,21.7-2.5,25.5
					c-4.8,3.8-13,0.6-27.8-11.7c-14.2-11.9-17.9-26.7-21-39.4c-3.1-12.4-5.6-22.4-19.7-22.3h-0.1c-14.1-0.2-16.6,9.7-19.7,22.3
					c-3.1,12.7-6.8,27.5-21,39.4c-15.5,13-23.3,16-27.9,11l-0.3-0.3c-3.2-3.8-2.8-11.1-2.3-21.6l0.1-2.5
					c2.4-46.8-8.3-69.3-16.4-86.4c-5.4-11.4-9.8-20.6-9.1-33c1.1-20.9,14-32.4,33-38.4c17.6-5.6,40.7-6.2,63.6-5.6
					c23-0.6,46,0,63.7,5.6C326.5,177,339.5,188.4,340.6,209.4z M322.3,237.5c5.4-9.9,9.7-18,9.3-27.7c-0.8-16.3-11.4-25.3-26.7-30.2
					c-16.5-5.1-38.7-5.8-60.9-5.1h-0.2c-22.2-0.6-44.3,0-60.9,5.1c-15.4,4.8-25.9,13.9-26.7,30.2c-0.5,10.1,3.5,18.5,8.3,28.8
					c8.6,18,19.8,41.6,17.3,90.6l-0.2,2.6c-0.5,8.4-0.8,14.2,0.2,15.3c0.6,0.3,4.9-2.9,15.5-11.8c11.9-10,15.2-23.3,18-34.6
					c4.1-16.3,7.3-29.3,28.5-29.2h0.2c21-0.1,24.3,12.9,28.3,29.2c2.8,11.3,6.1,24.6,18,34.6c10.7,9,15.5,12.2,16.4,11.5
					c1.2-0.9,0.5-7.5-0.8-17.2C299.5,279.8,312.3,256,322.3,237.5z"/>
				<path d="M207.7,187.9c0.2,2.6-1.8,4.8-4.4,5c-0.1,0-26.7,1.8-24.6,29.7c0.2,2.5-1.8,4.8-4.4,5c-2.6,0.2-4.9-1.8-5.1-4.3
					c-2.8-37.4,33.4-39.8,33.5-39.8C205.3,183.4,207.5,185.4,207.7,187.9z"/>
				<path d="M169.3,14.6c0.6,2.5-0.8,4.9-3.2,5.6l-8.1,2.1c-2.5,0.7-4.9-0.8-5.5-3.2c-0.7-2.4,0.8-4.8,3.1-5.5l8.1-2.2
					C166.2,10.8,168.6,12.2,169.3,14.6z"/>
				<path d="M158,34.2c0.6,2.4-0.8,4.9-3.2,5.5c-2.4,0.6-4.9-0.8-5.5-3.2l-2.2-7.9c-0.6-2.4,0.8-4.9,3.2-5.5
					c2.4-0.6,4.9,0.8,5.5,3.2L158,34.2z"/>
				<path d="M151.8,10.9c0.6,2.4-0.8,4.9-3.2,5.5c-2.5,0.7-4.9-0.8-5.5-3.2L141,5.7c-0.6-2.5,0.8-4.9,3.2-5.5
					c2.4-0.7,4.9,0.8,5.5,3.1L151.8,10.9z"/>
				<path d="M146.4,470.9c2.2,2.1,3.5,5.1,3.5,8.5c0,3.3-1.3,6.3-3.5,8.5c-2.1,2.1-5.1,3.4-8.4,3.4c-3.3,0-6.4-1.4-8.5-3.4
					c-2.1-2.2-3.5-5.2-3.5-8.5c0-3.4,1.4-6.4,3.5-8.5c2.1-2.1,5.2-3.5,8.5-3.5C141.2,467.4,144.2,468.8,146.4,470.9z M140.9,479.5
					c0-0.8-0.3-1.6-0.8-2.1c-0.5-0.5-1.3-0.9-2.1-0.9c-0.8,0-1.5,0.4-2.1,0.9c-0.5,0.5-0.9,1.2-0.9,2.1c0,0.8,0.4,1.5,0.9,2.1
					c0.5,0.5,1.2,0.8,2.1,0.8c0.8,0,1.5-0.3,2.1-0.8C140.5,481,140.9,480.2,140.9,479.5z"/>
				<path d="M146.8,20.7c0.6,2.4-0.8,4.9-3.2,5.5l-8.2,2.2c-2.5,0.6-4.9-0.8-5.6-3.2c-0.6-2.4,0.8-4.9,3.2-5.5l8.3-2.2
					C143.6,16.8,146.1,18.3,146.8,20.7z"/>
				<polygon points="26.3,160.7 28.7,168.9 20.1,171.5 17.7,163.3 				"/>
				<polygon points="20.1,171.5 22.5,179.6 13.8,182.2 11.5,174.1 				"/>
				<polygon points="15.2,155.2 17.6,163.3 9,165.9 6.5,157.8 				"/>
				<polygon points="8.9,165.9 11.4,174.1 2.8,176.7 0.3,168.6 				"/>
			</g>
		</g>
	</g>
</g>
</svg>
