<?xml version="1.0" encoding="utf-8"?>
<!-- Generator: Adobe Illustrator 23.0.3, SVG Export Plug-In . SVG Version: 6.00 Build 0)  -->
<!DOCTYPE svg PUBLIC "-//W3C//DTD SVG 1.1//EN" "http://www.w3.org/Graphics/SVG/1.1/DTD/svg11.dtd" [
	<!ENTITY ns_extend "http://ns.adobe.com/Extensibility/1.0/">
	<!ENTITY ns_ai "http://ns.adobe.com/AdobeIllustrator/10.0/">
	<!ENTITY ns_graphs "http://ns.adobe.com/Graphs/1.0/">
	<!ENTITY ns_vars "http://ns.adobe.com/Variables/1.0/">
	<!ENTITY ns_imrep "http://ns.adobe.com/ImageReplacement/1.0/">
	<!ENTITY ns_sfw "http://ns.adobe.com/SaveForWeb/1.0/">
	<!ENTITY ns_custom "http://ns.adobe.com/GenericCustomNamespace/1.0/">
	<!ENTITY ns_adobe_xpath "http://ns.adobe.com/XPath/1.0/">
]>
<svg version="1.1" id="Layer_1" xmlns:x="&ns_extend;" xmlns:i="&ns_ai;" xmlns:graph="&ns_graphs;"
	 xmlns="http://www.w3.org/2000/svg" xmlns:xlink="http://www.w3.org/1999/xlink" x="0px" y="0px" viewBox="0 0 60 54"
	 style="enable-background:new 0 0 60 54;" xml:space="preserve">
<metadata>
	<sfw  xmlns="&ns_sfw;">
		<slices></slices>
		<sliceSourceBounds  bottomLeftOrigin="true" height="54" width="60" x="0" y="13.5"></sliceSourceBounds>
	</sfw>
</metadata>
<path d="M60,18c-0.1-1.7-2.1-3.1-6.2-4.1c0.1-0.3,0.2-0.6,0.2-0.9V6h0c-0.3-5.8-24.2-6-27-6S0.4,0.2,0,6h0v0.1l0,0l0,0V13
	c0,1.9,2.5,3.4,6.1,4.5C6.1,17.7,6,17.8,6,18h0v0.1l0,0l0,0V25c-3.9,1-5.9,2.3-6,4h0v0.1l0,0l0,0V36c0,1.3,1.2,2.5,3.2,3.4
	C3.1,39.6,3,39.8,3,40h0v0.1l0,0l0,0V47c0,3.3,7.5,5.4,15.8,6.3c0.1,0,0.1,0,0.2,0c0,0,0,0,0,0c1.6,0.2,3.2,0.3,4.9,0.4
	c0,0,0.1,0,0.1,0c0,0,0,0,0,0c2.1,0.1,4.1,0.2,6,0.2s3.9-0.1,6-0.2c0,0,0,0,0,0c0,0,0.1,0,0.1,0c1.6-0.1,3.2-0.2,4.8-0.4
	c0,0,0,0,0,0c0.1,0,0.1,0,0.2,0c8.3-1,15.8-3,15.8-6.3v-7h0c-0.1-1.2-1.1-2.3-3.2-3.1c0.1-0.3,0.2-0.6,0.2-0.9v-6.5
	c3.6-1.1,6-2.6,6-4.5L60,18L60,18z M51.9,36.3l-0.3,0.3C51,37.1,50.1,37.5,49,38v-4.8c1.2-0.4,2.2-0.9,3-1.4V36
	C52,36.1,52,36.2,51.9,36.3z M29.5,41c-0.1,0-0.3,0-0.4,0c-0.4,0-0.7,0-1.1,0v-5c0.3,0,0.5,0,0.8,0c0,0,0.1,0,0.2,0c1,0,2,0,3-0.1v5
	c-0.2,0-0.4,0-0.6,0C30.8,40.9,30.1,41,29.5,41z M25.2,41c-0.5,0-0.9,0-1.4,0c-0.1,0-0.1,0-0.2,0c-0.5,0-1.1,0-1.6-0.1v-5
	c1,0,2,0.1,3,0.1c0,0,0.1,0,0.2,0c0.3,0,0.5,0,0.8,0v5c-0.2,0-0.4,0-0.6,0C25.3,41,25.3,41,25.2,41z M7.1,38.7
	C7.1,38.7,7,38.7,7.1,38.7L7,33.8c0.9,0.3,1.9,0.5,3,0.7v4.9c-0.9-0.2-1.8-0.4-2.5-0.6C7.3,38.8,7.2,38.7,7.1,38.7z M28.2,47
	c0.3,0,0.5,0,0.8,0v5c-1.4,0-2.7,0-4-0.1v-5c1,0,2,0.1,3,0.1C28.1,47,28.1,47,28.2,47z M32,47c1,0,2,0,3-0.1v5
	c-1.3,0.1-2.6,0.1-4,0.1v-5c0.3,0,0.5,0,0.8,0C31.9,47,31.9,47,32,47z M40,46.5v5c-1,0.1-2,0.2-3,0.3v-5C38,46.7,39,46.6,40,46.5z
	 M42,46.3c1-0.1,2-0.3,3-0.4v4.9c-0.9,0.2-1.9,0.3-3,0.5V46.3z M47,45.5c1.1-0.2,2.1-0.4,3-0.7v4.8c-0.9,0.3-1.9,0.5-3,0.7V45.5z
	 M13,45.5v4.9c-1.1-0.2-2.1-0.5-3-0.7v-4.8C10.9,45.1,11.9,45.3,13,45.5z M15,45.9c1,0.2,2,0.3,3,0.4v5c-1.1-0.1-2.1-0.3-3-0.5V45.9
	z M20,46.5c1,0.1,2,0.2,3,0.2v5c-1-0.1-2-0.2-3-0.3V46.5z M17.5,40.5c-0.1,0-0.2,0-0.3,0c-0.1,0-0.1,0-0.2,0v-5c1,0.1,2,0.2,3,0.2v5
	C19.2,40.7,18.3,40.6,17.5,40.5z M15,35.3v5c-1.1-0.1-2.1-0.3-3-0.5v-4.9C13,35,14,35.2,15,35.3z M34.7,40.7c-0.2,0-0.4,0-0.7,0v-5
	c1-0.1,2-0.2,3-0.2v5c-0.6,0.1-1.3,0.1-1.9,0.2C35,40.7,34.8,40.7,34.7,40.7z M39,40.3v-5c1-0.1,2-0.3,3-0.4v4.9
	C41.1,40,40.1,40.1,39,40.3z M44,34.5c1.1-0.2,2.1-0.4,3-0.7v4.8c-0.9,0.3-1.9,0.5-3,0.7V34.5z M30.3,30c-0.8,0-1.5,0-2.2-0.1
	c0,0-0.1,0-0.1,0v-5c1,0,2,0.1,3,0.1c0,0,0.1,0,0.2,0c0.3,0,0.5,0,0.8,0v5c-0.5,0-1,0-1.5,0C30.5,30,30.4,30,30.3,30z M7,15.7v-4.8
	c0.9,0.3,1.9,0.5,3,0.7v4.9c-0.1,0-0.3,0-0.4-0.1c-0.5-0.1-1.1-0.2-1.6-0.4C7.7,15.9,7.3,15.8,7,15.7z M25.2,13c0.3,0,0.5,0,0.8,0v5
	c-1.4,0-2.7,0-4-0.1v-5c1,0.1,2,0.1,3,0.1C25.1,13,25.1,13,25.2,13z M29,13c1,0,2-0.1,3-0.1v5c-0.2,0-0.3,0-0.5,0c0,0,0,0,0,0
	c-0.7,0-1.4,0-2,0.1c-0.1,0-0.2,0-0.3,0c-0.4,0-0.7,0-1.1,0v-5c0.3,0,0.5,0,0.8,0C28.9,13,28.9,13,29,13z M51.8,13.5L51.8,13.5
	l-0.4,0.3C50.9,14.2,50,14.6,49,15v-4.8c1.2-0.4,2.2-0.9,3-1.4V13C52,13.1,51.9,13.3,51.8,13.5z M39,17.3v-4.9c1-0.1,2-0.3,3-0.4
	v4.9C41,17,40,17.1,39,17.3z M44,16.4v-4.9c1.1-0.2,2.1-0.4,3-0.7v4.8C46.1,15.9,45.1,16.2,44,16.4z M37,12.5v5c-1,0.1-2,0.2-3,0.3
	v-5C35,12.7,36,12.6,37,12.5z M17,17.5v-5c1,0.1,2,0.2,3,0.2v5C19,17.7,18,17.6,17,17.5z M15,12.3v4.9c-0.2,0-0.4,0-0.6-0.1
	c-0.1,0-0.3,0-0.4,0c-0.6-0.1-1.1-0.2-1.7-0.3c-0.1,0-0.2,0-0.3-0.1v-4.9C13,12.1,14,12.2,15,12.3z M25.8,29.7c-0.1,0-0.3,0-0.4,0
	c-0.6,0-1.3-0.1-1.9-0.2c-0.1,0-0.3,0-0.4,0c0,0,0,0-0.1,0v-5c1,0.1,2,0.2,3,0.2v5C25.9,29.8,25.8,29.8,25.8,29.7z M19.1,29
	c-0.4-0.1-0.8-0.1-1.1-0.2v-4.9c1,0.2,2,0.3,3,0.4v4.9C20.4,29.2,19.8,29.1,19.1,29C19.2,29,19.2,29,19.1,29z M16,23.5v4.9
	c-1.1-0.2-2.1-0.5-3-0.8v-4.8C13.9,23.1,14.9,23.3,16,23.5z M11,22.2V27c-1.6-0.6-2.6-1.2-2.9-1.8L8,25.1c0,0,0-0.1,0-0.1v-4.1
	C8.8,21.4,9.8,21.8,11,22.2z M35,25c1,0,2,0,3-0.1v5c-1.3,0.1-2.7,0.1-4,0.1v-5c0.3,0,0.5,0,0.8,0C34.9,25,34.9,25,35,25z
	 M47.9,28.8C47.5,28.9,47,29,46.6,29c-0.3,0-0.5,0.1-0.8,0.1c-0.3,0-0.5,0.1-0.8,0.1v-4.9c1-0.1,2-0.3,3-0.4L47.9,28.8
	C48,28.8,47.9,28.8,47.9,28.8z M41.1,29.7c-0.4,0-0.8,0-1.1,0.1v-5c1-0.1,2-0.1,3-0.2v5c-0.6,0.1-1.2,0.1-1.8,0.2
	C41.2,29.7,41.2,29.7,41.1,29.7z M52.6,27.8c-0.5,0.1-1,0.3-1.6,0.4c-0.3,0.1-0.5,0.1-0.8,0.2c-0.1,0-0.2,0-0.2,0v-4.9
	c1.1-0.2,2.1-0.4,3-0.7v4.8C52.9,27.7,52.7,27.8,52.6,27.8z M58,18.1c-0.1,0.7-1.6,1.6-4.4,2.4l0,0c-3.5,1.1-9.1,2.1-16.1,2.4
	c-0.4,0-0.7,0-1.1,0c-0.3,0-0.6,0-0.9,0c-0.8,0-1.7,0-2.5,0s-1.7,0-2.5,0c-0.3,0-0.6,0-0.9,0c-0.4,0-0.7,0-1.1,0
	c-7-0.3-12.6-1.3-16.1-2.4l0,0c-2.7-0.8-4.3-1.7-4.4-2.4c0,0,0,0,0-0.1c0.1,0,0.1,0,0.2,0c0.4,0.1,0.8,0.2,1.2,0.3
	c2,0.4,4.2,0.8,6.5,1c0,0,0,0,0,0l0,0c1.6,0.2,3.3,0.3,5,0.4c0,0,0,0,0,0c0,0,0,0,0,0c1.2,0.1,2.5,0.1,3.7,0.1c0.8,0,1.5,0,2.2,0
	c0.5,0,1.1,0,1.6,0c7.3-0.1,14-1,18.7-2.3c0.2-0.1,0.4-0.1,0.6-0.2c0.1,0,0.3-0.1,0.4-0.1c0.4-0.1,0.7-0.2,1-0.4
	c0.1,0,0.1,0,0.2-0.1c0.3-0.1,0.5-0.2,0.8-0.3c0.1,0,0.2-0.1,0.2-0.1c0.3-0.1,0.5-0.3,0.8-0.4c0.1-0.1,0.2-0.1,0.3-0.2
	c0.1-0.1,0.2-0.1,0.3-0.2c0.1,0,0.1-0.1,0.2-0.1C56.7,16.6,57.9,17.6,58,18.1z M27,2c16.5,0,24.8,2.6,25,4.1
	c-0.1,0.7-1.7,1.6-4.4,2.4l0,0c-3.5,1.1-9.1,2.1-16.1,2.4c-0.4,0-0.7,0-1.1,0c-0.3,0-0.6,0-0.9,0c-0.8,0-1.7,0-2.5,0s-1.7,0-2.5,0
	c-0.3,0-0.6,0-0.9,0c-0.4,0-0.7,0-1.1,0c-7-0.3-12.6-1.3-16.1-2.4l0,0C3.7,7.7,2.1,6.8,2,6.1C2.2,4.6,10.5,2,27,2z M2,13V8.9
	c0.8,0.5,1.8,1,3,1.4V15C3.1,14.3,2,13.6,2,13z M6.8,26.8C6.9,26.9,6.9,26.9,6.8,26.8c1.4,1.4,4.3,2.5,7.8,3.3c0.1,0,0.2,0,0.3,0.1
	c0.3,0.1,0.5,0.1,0.8,0.2c3.2,0.7,7.1,1.2,11.3,1.4c0,0,0,0,0,0l0,0c1.4,0.1,2.7,0.1,4.1,0.2c0.6,0,1.3,0,1.8,0c0.7,0,1.4,0,2.1,0
	c1.3,0,2.6-0.1,3.9-0.2h0c0,0,0,0,0,0c4.2-0.3,8.2-0.8,11.5-1.5c-0.7,0.4-1.7,0.8-3,1.2l0,0c-3.7,1.2-9.7,2.2-17.3,2.5
	c-0.2,0-0.5,0-0.7,0c-0.3,0-0.5,0-0.7,0c-0.6,0-1.3,0-1.9,0c-0.9,0-1.7,0-2.5,0c-0.3,0-0.6,0-0.9,0c-0.4,0-0.7,0-1.1,0
	c-7-0.3-12.6-1.3-16.1-2.4l0,0c-2.8-0.9-4.3-1.8-4.4-2.4C2.1,28.7,3.1,27.7,6.8,26.8z M2,36v-4.1c0.8,0.5,1.8,1,3,1.4V38l-0.6-0.2
	l0,0C2.8,37.1,2,36.5,2,36z M5,47v-4.1c0.8,0.5,1.8,1,3,1.4V49C6.1,48.3,5,47.6,5,47z M52,49v-4.8c1.2-0.4,2.2-0.9,3-1.4V47
	C55,47.6,53.9,48.3,52,49z M55,40.1c-0.1,0.7-1.6,1.6-4.4,2.4l0,0c-3.5,1.1-9.1,2.1-16.1,2.4c-0.4,0-0.7,0-1.1,0c-0.3,0-0.6,0-0.9,0
	c-0.8,0-1.7,0-2.5,0s-1.7,0-2.5,0c-0.3,0-0.6,0-0.9,0c-0.4,0-0.7,0-1.1,0c-7-0.3-12.6-1.3-16.1-2.4l0,0c-2.6-0.8-4.2-1.7-4.4-2.3
	c0.3,0.1,0.6,0.2,0.9,0.3c0,0,0.1,0,0.1,0c0.3,0.1,0.6,0.2,0.8,0.2c0.1,0,0.2,0.1,0.3,0.1c0.2,0,0.3,0.1,0.5,0.1
	c3.6,0.9,8.3,1.6,13.3,1.9l0,0l0,0c1.5,0.1,3.1,0.2,4.7,0.2c0.4,0,0.9,0,1.3,0c0.5,0,1.1,0,1.7,0c1.5,0,2.9-0.1,4.3-0.2c0,0,0,0,0,0
	h0c1.7-0.1,3.4-0.3,5-0.4c0,0,0,0,0,0c0,0,0,0,0.1,0c1.8-0.2,3.5-0.5,5-0.8c0.3-0.1,0.6-0.1,1-0.2c0.1,0,0.1,0,0.2,0
	c3-0.6,5.5-1.4,7.3-2.4c0.1,0,0.2-0.1,0.3-0.2c0.1-0.1,0.2-0.1,0.3-0.2c0.1-0.1,0.2-0.1,0.3-0.2C54.4,39.2,54.9,39.8,55,40.1z
	 M55,27v-4.8c1.2-0.4,2.2-0.9,3-1.4V25C58,25.6,56.9,26.3,55,27z"/>
</svg>
