<?xml version="1.0" encoding="utf-8"?>
<!-- Generator: Adobe Illustrator 23.0.3, SVG Export Plug-In . SVG Version: 6.00 Build 0)  -->
<!DOCTYPE svg PUBLIC "-//W3C//DTD SVG 1.1//EN" "http://www.w3.org/Graphics/SVG/1.1/DTD/svg11.dtd" [
	<!ENTITY ns_extend "http://ns.adobe.com/Extensibility/1.0/">
	<!ENTITY ns_ai "http://ns.adobe.com/AdobeIllustrator/10.0/">
	<!ENTITY ns_graphs "http://ns.adobe.com/Graphs/1.0/">
	<!ENTITY ns_vars "http://ns.adobe.com/Variables/1.0/">
	<!ENTITY ns_imrep "http://ns.adobe.com/ImageReplacement/1.0/">
	<!ENTITY ns_sfw "http://ns.adobe.com/SaveForWeb/1.0/">
	<!ENTITY ns_custom "http://ns.adobe.com/GenericCustomNamespace/1.0/">
	<!ENTITY ns_adobe_xpath "http://ns.adobe.com/XPath/1.0/">
]>
<svg version="1.1" id="Isolation_Mode" xmlns:x="&ns_extend;" xmlns:i="&ns_ai;" xmlns:graph="&ns_graphs;"
	 xmlns="http://www.w3.org/2000/svg" xmlns:xlink="http://www.w3.org/1999/xlink" x="0px" y="0px" viewBox="0 0 906.8 456"
	 style="enable-background:new 0 0 906.8 456;" xml:space="preserve">
<style type="text/css">
	.st0{fill:url(#SVGID_1_);}
</style>
<metadata>
	<sfw  xmlns="&ns_sfw;">
		<slices></slices>
		<sliceSourceBounds  bottomLeftOrigin="true" height="456.2" width="906.7" x="0.1" y="-0.2"></sliceSourceBounds>
	</sfw>
</metadata>
<linearGradient id="SVGID_1_" gradientUnits="userSpaceOnUse" x1="-4321.7954" y1="-1027.21" x2="-4321.7954" y2="-570.9995" gradientTransform="matrix(-1 0 0 -1 -3868.3674 -570.9922)">
	<stop  offset="0" style="stop-color:#16A4EF"/>
	<stop  offset="1" style="stop-color:#0FC3F2"/>
</linearGradient>
<path class="st0" d="M44.8,82.8C87.4,59.9,136.3,48.2,184.3,46c57.3-2.7,113.2,13.8,168.6,26.1c73.7,16.4,152.5,17.8,222.3-15
	c45-21.1,91.6-45.8,141.6-53.6c76.5-11.9,130,4.9,190,74.4c0,10.3,0,34,0,44.5c0,9.5,0,18.9,0,28.5c0,26.8,0,53.7,0,80.6
	c0,69.6,0,139.1,0,208.7c0,33,0-17.6,0,15.4L0.1,456.2c0-43,0-3.1,0-46.1c0-59.5,0.1-119.3,0-178.8c-0.1-29.1,0-59.6,0-88.7
	c0-16,0.1-13.3,0-29.3C14,101.3,28.7,91.5,44.8,82.8z"/>
</svg>
